<mxfile host="65bd71144e">
    <diagram id="FHwpEYUrQQwg7Hpwzu1b" name="Страница 1">
        <mxGraphModel dx="803" dy="605" grid="1" gridSize="10" guides="1" tooltips="1" connect="1" arrows="1" fold="1" page="1" pageScale="1" pageWidth="1654" pageHeight="2336" math="0" shadow="0">
            <root>
                <mxCell id="0"/>
                <mxCell id="1" parent="0"/>
                <mxCell id="7" style="edgeStyle=orthogonalEdgeStyle;rounded=0;orthogonalLoop=1;jettySize=auto;html=1;exitX=0.5;exitY=0.5;exitDx=0;exitDy=30;exitPerimeter=0;entryX=0.5;entryY=0;entryDx=0;entryDy=0;endArrow=none;endFill=0;" parent="1" source="8" target="9" edge="1">
                    <mxGeometry relative="1" as="geometry"/>
                </mxCell>
                <mxCell id="8" value="Начало" style="html=1;dashed=0;whitespace=wrap;shape=mxgraph.dfd.start" parent="1" vertex="1">
                    <mxGeometry x="390" y="100" width="200" height="60" as="geometry"/>
                </mxCell>
                <mxCell id="49" style="edgeStyle=orthogonalEdgeStyle;rounded=0;orthogonalLoop=1;jettySize=auto;html=1;exitX=0.5;exitY=1;exitDx=0;exitDy=0;entryX=0.5;entryY=0;entryDx=0;entryDy=0;endArrow=none;endFill=0;" parent="1" source="9" target="46" edge="1">
                    <mxGeometry relative="1" as="geometry"/>
                </mxCell>
                <mxCell id="9" value="spektr = 360" style="html=1;dashed=0;whitespace=wrap;" parent="1" vertex="1">
                    <mxGeometry x="390" y="180" width="200" height="60" as="geometry"/>
                </mxCell>
                <mxCell id="10" value="" style="edgeStyle=orthogonalEdgeStyle;rounded=0;orthogonalLoop=1;jettySize=auto;html=1;endArrow=none;endFill=0;dashed=1;" parent="1" source="11" target="8" edge="1">
                    <mxGeometry relative="1" as="geometry"/>
                </mxCell>
                <mxCell id="11" value="Функция, которая вычисляет часть&lt;br&gt;отрезков Брезенхема из спектра&lt;br&gt;&lt;br&gt;Вход: длина отрезка d, кол-во потоков threads_count,&lt;br&gt;индекс текущего потока thread_ind&lt;br&gt;Выход: мно-во отрезков на канвасе" style="html=1;dashed=0;whitespace=wrap;shape=partialRectangle;right=0;align=left;" parent="1" vertex="1">
                    <mxGeometry x="660" y="90" width="30" height="80" as="geometry"/>
                </mxCell>
                <mxCell id="28" style="edgeStyle=orthogonalEdgeStyle;rounded=0;orthogonalLoop=1;jettySize=auto;html=1;exitX=0.5;exitY=1;exitDx=0;exitDy=0;entryX=0.5;entryY=0;entryDx=0;entryDy=0;endArrow=none;endFill=0;" parent="1" source="17" target="26" edge="1">
                    <mxGeometry relative="1" as="geometry"/>
                </mxCell>
                <mxCell id="17" value="pt1.x = WIN_X / 2&lt;br&gt;pt1.y = WIN_Y / 2" style="html=1;dashed=0;whitespace=wrap;" parent="1" vertex="1">
                    <mxGeometry x="390" y="650" width="200" height="60" as="geometry"/>
                </mxCell>
                <mxCell id="24" value="" style="edgeStyle=orthogonalEdgeStyle;rounded=0;orthogonalLoop=1;jettySize=auto;html=1;endArrow=none;endFill=0;dashed=1;" parent="1" source="25" edge="1">
                    <mxGeometry relative="1" as="geometry">
                        <mxPoint x="590" y="680" as="targetPoint"/>
                    </mxGeometry>
                </mxCell>
                <mxCell id="25" value="WIN_X - ширина окна приложения&lt;br&gt;WIN_Y - высота окна приложения" style="html=1;dashed=0;whitespace=wrap;shape=partialRectangle;right=0;align=left;" parent="1" vertex="1">
                    <mxGeometry x="660" y="640" width="30" height="80" as="geometry"/>
                </mxCell>
                <mxCell id="31" style="edgeStyle=orthogonalEdgeStyle;rounded=0;orthogonalLoop=1;jettySize=auto;html=1;exitX=0.5;exitY=1;exitDx=0;exitDy=0;entryX=0.5;entryY=0;entryDx=0;entryDy=0;endArrow=none;endFill=0;" parent="1" source="26" target="30" edge="1">
                    <mxGeometry relative="1" as="geometry"/>
                </mxCell>
                <mxCell id="26" value="Цикл i от part_ind &lt;br&gt;до part_ind + sector_in_thread" style="shape=loopLimit;whiteSpace=wrap;html=1;direction=east" parent="1" vertex="1">
                    <mxGeometry x="390" y="730" width="200" height="60" as="geometry"/>
                </mxCell>
                <mxCell id="33" style="edgeStyle=orthogonalEdgeStyle;rounded=0;orthogonalLoop=1;jettySize=auto;html=1;exitX=0.5;exitY=1;exitDx=0;exitDy=0;entryX=0.5;entryY=0;entryDx=0;entryDy=0;endArrow=none;endFill=0;" parent="1" source="30" target="32" edge="1">
                    <mxGeometry relative="1" as="geometry"/>
                </mxCell>
                <mxCell id="30" value="pt2.x = cos(i * pi/180)*d + WIN_X / 2&lt;br&gt;&amp;nbsp;&lt;br&gt;pt2.y = sin(i * pi/180)*d + WIN_Y / 2" style="html=1;dashed=0;whitespace=wrap;" parent="1" vertex="1">
                    <mxGeometry x="390" y="810" width="200" height="60" as="geometry"/>
                </mxCell>
                <mxCell id="36" style="edgeStyle=orthogonalEdgeStyle;rounded=0;orthogonalLoop=1;jettySize=auto;html=1;exitX=0.5;exitY=1;exitDx=0;exitDy=0;entryX=0.5;entryY=0;entryDx=0;entryDy=0;endArrow=none;endFill=0;" parent="1" source="32" edge="1">
                    <mxGeometry relative="1" as="geometry">
                        <mxPoint x="490" y="970" as="targetPoint"/>
                    </mxGeometry>
                </mxCell>
                <mxCell id="32" value="pt1.x = round(pt1.x)&lt;br&gt;pt1.y = round(pt1.y)&lt;br&gt;pt2.x = round(pt2.x)&lt;br&gt;pt2.y = round(pt2.y)" style="html=1;dashed=0;whitespace=wrap;" parent="1" vertex="1">
                    <mxGeometry x="390" y="890" width="200" height="60" as="geometry"/>
                </mxCell>
                <mxCell id="43" style="edgeStyle=orthogonalEdgeStyle;rounded=0;orthogonalLoop=1;jettySize=auto;html=1;exitX=0.5;exitY=1;exitDx=0;exitDy=0;entryX=0.5;entryY=1;entryDx=0;entryDy=0;endArrow=none;endFill=0;" parent="1" target="39" edge="1">
                    <mxGeometry relative="1" as="geometry">
                        <mxPoint x="490" y="1030" as="sourcePoint"/>
                    </mxGeometry>
                </mxCell>
                <mxCell id="37" value="Алгоритм Брезенхема&lt;br&gt;для построения отрезка&lt;br&gt;&lt;br&gt;Вход: point_t pt1, pt2&lt;br&gt;Выход: мно-во точек на канвасе" style="html=1;dashed=0;whitespace=wrap;shape=partialRectangle;right=0;align=left;" parent="1" vertex="1">
                    <mxGeometry x="660" y="960" width="30" height="80" as="geometry"/>
                </mxCell>
                <mxCell id="38" value="" style="edgeStyle=orthogonalEdgeStyle;rounded=0;orthogonalLoop=1;jettySize=auto;html=1;endArrow=none;endFill=0;dashed=1;" parent="1" source="37" edge="1">
                    <mxGeometry relative="1" as="geometry">
                        <mxPoint x="590" y="1000" as="targetPoint"/>
                    </mxGeometry>
                </mxCell>
                <mxCell id="44" style="edgeStyle=orthogonalEdgeStyle;rounded=0;orthogonalLoop=1;jettySize=auto;html=1;exitX=0.5;exitY=0;exitDx=0;exitDy=0;entryX=0.5;entryY=0.5;entryDx=0;entryDy=-30;entryPerimeter=0;endArrow=none;endFill=0;" parent="1" source="39" target="40" edge="1">
                    <mxGeometry relative="1" as="geometry"/>
                </mxCell>
                <mxCell id="39" value="i += 1" style="shape=loopLimit;whiteSpace=wrap;html=1;strokeWidth=1;direction=west;" parent="1" vertex="1">
                    <mxGeometry x="390" y="1050" width="200" height="60" as="geometry"/>
                </mxCell>
                <mxCell id="40" value="Конец" style="html=1;dashed=0;whitespace=wrap;shape=mxgraph.dfd.start" parent="1" vertex="1">
                    <mxGeometry x="390" y="1130" width="200" height="60" as="geometry"/>
                </mxCell>
                <mxCell id="45" value="bresenham_line(pt1, pt2)" style="shape=process;whiteSpace=wrap;html=1;backgroundOutline=1;" parent="1" vertex="1">
                    <mxGeometry x="390" y="970" width="200" height="60" as="geometry"/>
                </mxCell>
                <mxCell id="50" style="edgeStyle=orthogonalEdgeStyle;rounded=0;orthogonalLoop=1;jettySize=auto;html=1;exitX=0.5;exitY=1;exitDx=0;exitDy=0;entryX=0.5;entryY=0;entryDx=0;entryDy=0;endArrow=none;endFill=0;" parent="1" source="46" target="48" edge="1">
                    <mxGeometry relative="1" as="geometry"/>
                </mxCell>
                <mxCell id="46" value="sector_in_thread = &lt;br&gt;spektr / threads_count" style="html=1;dashed=0;whitespace=wrap;" parent="1" vertex="1">
                    <mxGeometry x="390" y="260" width="200" height="60" as="geometry"/>
                </mxCell>
                <mxCell id="57" style="edgeStyle=orthogonalEdgeStyle;rounded=0;orthogonalLoop=1;jettySize=auto;html=1;exitX=0.5;exitY=1;exitDx=0;exitDy=0;entryX=0.5;entryY=0;entryDx=0;entryDy=0;endArrow=none;endFill=0;" parent="1" source="48" target="53" edge="1">
                    <mxGeometry relative="1" as="geometry"/>
                </mxCell>
                <mxCell id="48" value="part_ind =&amp;nbsp;&lt;br&gt;&lt;span style=&quot;text-align: left&quot;&gt;thread_ind *&amp;nbsp;&lt;/span&gt;sector_in_thread" style="html=1;dashed=0;whitespace=wrap;" parent="1" vertex="1">
                    <mxGeometry x="390" y="340" width="200" height="60" as="geometry"/>
                </mxCell>
                <mxCell id="51" style="edgeStyle=orthogonalEdgeStyle;rounded=0;orthogonalLoop=1;jettySize=auto;html=1;exitX=1;exitY=0.5;exitDx=0;exitDy=0;endArrow=classic;endFill=1;" parent="1" source="53" edge="1">
                    <mxGeometry relative="1" as="geometry">
                        <mxPoint x="650" y="510" as="targetPoint"/>
                    </mxGeometry>
                </mxCell>
                <mxCell id="52" style="edgeStyle=orthogonalEdgeStyle;rounded=0;orthogonalLoop=1;jettySize=auto;html=1;exitX=0;exitY=0.5;exitDx=0;exitDy=0;endArrow=none;endFill=0;" parent="1" source="53" edge="1">
                    <mxGeometry relative="1" as="geometry">
                        <mxPoint x="490" y="610" as="targetPoint"/>
                        <Array as="points">
                            <mxPoint x="330" y="450"/>
                            <mxPoint x="330" y="610"/>
                        </Array>
                    </mxGeometry>
                </mxCell>
                <mxCell id="53" value="thread_ind + 1 ==&lt;br&gt;threads_count" style="shape=rhombus;html=1;dashed=0;whitespace=wrap;perimeter=rhombusPerimeter;" parent="1" vertex="1">
                    <mxGeometry x="390" y="420" width="200" height="60" as="geometry"/>
                </mxCell>
                <mxCell id="54" style="edgeStyle=orthogonalEdgeStyle;rounded=0;orthogonalLoop=1;jettySize=auto;html=1;exitX=0.5;exitY=1;exitDx=0;exitDy=0;entryX=0.5;entryY=0;entryDx=0;entryDy=0;endArrow=classic;endFill=1;" parent="1" source="55" target="17" edge="1">
                    <mxGeometry relative="1" as="geometry">
                        <mxPoint x="490" y="640" as="targetPoint"/>
                        <Array as="points">
                            <mxPoint x="650" y="610"/>
                            <mxPoint x="490" y="610"/>
                        </Array>
                    </mxGeometry>
                </mxCell>
                <mxCell id="55" value="sector_in_thread +=&amp;nbsp;(spektr - &lt;br&gt;sector_in_thread * threads_count)" style="html=1;dashed=0;whitespace=wrap;" parent="1" vertex="1">
                    <mxGeometry x="550" y="510" width="200" height="60" as="geometry"/>
                </mxCell>
                <mxCell id="56" value="Да" style="text;html=1;align=center;verticalAlign=middle;resizable=0;points=[];autosize=1;strokeColor=none;" parent="1" vertex="1">
                    <mxGeometry x="575" y="420" width="30" height="20" as="geometry"/>
                </mxCell>
            </root>
        </mxGraphModel>
    </diagram>
</mxfile>